<svg width="16" height="16" viewBox="0 0 16 16" fill="none" xmlns="http://www.w3.org/2000/svg">
<path d="M9.09666 8.00001L15.5444 1.55224C15.6719 1.40345 15.7384 1.21206 15.7309 1.01631C15.7233 0.820559 15.6422 0.634873 15.5037 0.496355C15.3651 0.357837 15.1795 0.27669 14.9837 0.269129C14.788 0.261568 14.5966 0.328151 14.4478 0.455571L7.99999 6.90335L1.55221 0.447793C1.40576 0.301335 1.20712 0.219055 0.999993 0.219055C0.792869 0.219055 0.594229 0.301335 0.44777 0.447793C0.301312 0.594252 0.219032 0.792892 0.219032 1.00002C0.219032 1.20714 0.301312 1.40578 0.44777 1.55224L6.90333 8.00001L0.44777 14.4478C0.366351 14.5175 0.300224 14.6033 0.25354 14.6998C0.206855 14.7963 0.18062 14.9014 0.176483 15.0085C0.172346 15.1156 0.190394 15.2225 0.229497 15.3223C0.268599 15.4221 0.327911 15.5127 0.403709 15.5885C0.479507 15.6643 0.570155 15.7236 0.669964 15.7627C0.769772 15.8018 0.876586 15.8199 0.983701 15.8157C1.09082 15.8116 1.19592 15.7854 1.29241 15.7387C1.38891 15.692 1.47471 15.6259 1.54444 15.5445L7.99999 9.09668L14.4478 15.5445C14.5966 15.6719 14.788 15.7385 14.9837 15.7309C15.1795 15.7233 15.3651 15.6422 15.5037 15.5037C15.6422 15.3652 15.7233 15.1795 15.7309 14.9837C15.7384 14.788 15.6719 14.5966 15.5444 14.4478L9.09666 8.00001Z" fill="#ECF1F0"/>
</svg>
