<svg width="44" height="49" viewBox="0 0 44 49" fill="none" xmlns="http://www.w3.org/2000/svg">
<path d="M44 26.9C44 32.6287 41.6821 38.1227 37.5563 42.1735C33.4305 46.2243 27.8348 48.5 22 48.5C16.1652 48.5 10.5695 46.2243 6.44365 42.1735C2.31785 38.1227 0 32.6287 0 26.9L0.0733333 6.332C6.55111 2.612 14.08 0.5 22.1222 0.5C30.0667 0.5 37.5467 2.588 44 6.212V26.9ZM24.4444 43.532C32.7311 42.356 39.1111 35.3 39.1111 26.9V9.116C33.9778 6.668 28.2089 5.3 22.1222 5.3C15.8889 5.3 9.97333 6.74 4.74222 9.284L4.88889 26.9C4.88889 35.3 11.3178 42.356 19.5556 43.532V38.9H24.4444V43.532ZM19.5556 34.1H12.2222L7.33333 26.9L14.6667 29.3H17.1111L19.5556 26.9H24.4444L26.8889 29.3H29.3333L36.6667 26.9L31.7778 34.1H24.4444L22 31.7L19.5556 34.1ZM7.33333 17.372C8.89778 15.86 11 15.02 13.4444 15.02C15.7667 15.02 17.9422 15.86 19.5556 17.372C17.9422 18.86 15.7667 19.7 13.4444 19.7C11 19.7 8.89778 18.86 7.33333 17.372ZM24.4444 17.372C26.0089 15.86 28.1111 15.02 30.5556 15.02C32.8778 15.02 35.0533 15.86 36.6667 17.372C35.0533 18.86 32.8778 19.7 30.5556 19.7C28.1111 19.7 26.0089 18.86 24.4444 17.372Z" fill="#ECF1F0"/>
</svg>
