<svg width="16" height="9" viewBox="0 0 16 9" fill="none" xmlns="http://www.w3.org/2000/svg">
<path d="M8.45252 8.275L15.09 1.30875C15.2008 1.19251 15.2626 1.03808 15.2626 0.877496C15.2626 0.716908 15.2008 0.562482 15.09 0.446247L15.0825 0.438746C15.0288 0.382203 14.9641 0.337178 14.8925 0.306411C14.8208 0.275644 14.7436 0.259778 14.6656 0.259778C14.5876 0.259778 14.5105 0.275644 14.4388 0.306411C14.3671 0.337178 14.3025 0.382203 14.2488 0.438747L7.99876 6.99875L1.75126 0.438748C1.69755 0.382204 1.63289 0.337179 1.56122 0.306412C1.48956 0.275646 1.41238 0.259779 1.33439 0.259779C1.2564 0.259779 1.17922 0.275646 1.10756 0.306412C1.03589 0.337179 0.971231 0.382204 0.917514 0.438748L0.910014 0.446248C0.799208 0.562484 0.737394 0.716909 0.737394 0.877498C0.737394 1.03809 0.799208 1.19251 0.910014 1.30875L7.54751 8.275C7.60589 8.33626 7.67609 8.38504 7.75387 8.41836C7.83166 8.45169 7.91539 8.46887 8.00002 8.46887C8.08464 8.46887 8.16838 8.45169 8.24616 8.41836C8.32394 8.38504 8.39414 8.33626 8.45252 8.275Z" fill="#ECF1F0"/>
</svg>
